<?xml version="1.0" encoding="UTF-8"?>
<svg id="Ebene_1" xmlns="http://www.w3.org/2000/svg" version="1.1" viewBox="0 0 113.4 113.4">
  <!-- Generator: Adobe Illustrator 29.8.3, SVG Export Plug-In . SVG Version: 2.1.1 Build 3)  -->
  <defs>
    <style>
      .st0 {
        stroke: #244721;
      }

      .st0, .st1, .st2, .st3 {
        fill: none;
        stroke-width: 6.3px;
      }

      .st1 {
        stroke: #fff;
      }

      .st2 {
        stroke: #f1f1e1;
      }

      .st4 {
        display: none;
      }

      .st3 {
        stroke: #2f2b10;
      }
    </style>
  </defs>
  <g id="weiss" class="st4">
    <path class="st1" d="M27.4,101.1V15.1M85.8,15.1l-29.2,38.7L27.4,15.1M85.8,101.1V15.1M27.4,101.1V15.1M85.8,101.1V15.1"/>
    <circle class="st1" cx="56.7" cy="56.3" r="52.4"/>
    <line class="st1" x1="3.6" y1="56.3" x2="108.7" y2="56.3"/>
  </g>
  <g id="schwarz" class="st4">
    <path class="st3" d="M27.4,101.1V15.1M85.8,15.1l-29.2,38.7L27.4,15.1M85.8,101.1V15.1M27.4,101.1V15.1M85.8,101.1V15.1"/>
    <circle class="st3" cx="56.7" cy="56.3" r="52.4"/>
    <line class="st3" x1="3.6" y1="56.3" x2="108.7" y2="56.3"/>
  </g>
  <g id="dunkelgrün">
    <path class="st0" d="M27.4,101.1V15.1M85.8,15.1l-29.2,38.7L27.4,15.1M85.8,101.1V15.1M27.4,101.1V15.1M85.8,101.1V15.1"/>
    <circle class="st0" cx="56.7" cy="56.3" r="52.4"/>
    <line class="st0" x1="3.6" y1="56.3" x2="108.7" y2="56.3"/>
  </g>
  <g id="hellbeige" class="st4">
    <path class="st2" d="M27.4,101.1V15.1M85.8,15.1l-29.2,38.7L27.4,15.1M85.8,101.1V15.1M27.4,101.1V15.1M85.8,101.1V15.1"/>
    <circle class="st2" cx="56.7" cy="56.3" r="52.4"/>
    <line class="st2" x1="3.6" y1="56.3" x2="108.7" y2="56.3"/>
  </g>
</svg>